<mxfile host="Electron" agent="Mozilla/5.0 (X11; Linux x86_64) AppleWebKit/537.36 (KHTML, like Gecko) draw.io/26.1.1 Chrome/132.0.6834.210 Electron/34.3.2 Safari/537.36" version="26.1.1">
  <diagram name="Page-1" id="3x90wIXVfekAreESvdz6">
    <mxGraphModel dx="989" dy="577" grid="1" gridSize="10" guides="1" tooltips="1" connect="1" arrows="1" fold="1" page="1" pageScale="1" pageWidth="827" pageHeight="1169" math="0" shadow="0">
      <root>
        <mxCell id="0" />
        <mxCell id="1" parent="0" />
        <mxCell id="NgoQIRQq6KJzNgYvoR6J-1" value="Object A" style="rounded=0;whiteSpace=wrap;html=1;fillColor=#dae8fc;strokeColor=#6c8ebf;" vertex="1" parent="1">
          <mxGeometry x="220" y="200" width="120" height="60" as="geometry" />
        </mxCell>
        <mxCell id="NgoQIRQq6KJzNgYvoR6J-2" value="Object C" style="rounded=0;whiteSpace=wrap;html=1;fillColor=#d5e8d4;strokeColor=#82b366;" vertex="1" parent="1">
          <mxGeometry x="490" y="250" width="120" height="60" as="geometry" />
        </mxCell>
        <mxCell id="NgoQIRQq6KJzNgYvoR6J-4" value="Object B" style="rounded=0;whiteSpace=wrap;html=1;fillColor=#dae8fc;strokeColor=#6c8ebf;" vertex="1" parent="1">
          <mxGeometry x="220" y="280" width="120" height="60" as="geometry" />
        </mxCell>
        <mxCell id="NgoQIRQq6KJzNgYvoR6J-6" value="Wire A" style="endArrow=classic;html=1;rounded=0;entryX=1;entryY=0.5;entryDx=0;entryDy=0;exitX=0;exitY=0.5;exitDx=0;exitDy=0;" edge="1" parent="1" source="NgoQIRQq6KJzNgYvoR6J-2" target="NgoQIRQq6KJzNgYvoR6J-1">
          <mxGeometry width="50" height="50" relative="1" as="geometry">
            <mxPoint x="480" y="250" as="sourcePoint" />
            <mxPoint x="530" y="200" as="targetPoint" />
          </mxGeometry>
        </mxCell>
        <mxCell id="NgoQIRQq6KJzNgYvoR6J-7" value="Wire B" style="endArrow=classic;html=1;rounded=0;entryX=1;entryY=0.5;entryDx=0;entryDy=0;exitX=0;exitY=0.5;exitDx=0;exitDy=0;" edge="1" parent="1" source="NgoQIRQq6KJzNgYvoR6J-2" target="NgoQIRQq6KJzNgYvoR6J-4">
          <mxGeometry width="50" height="50" relative="1" as="geometry">
            <mxPoint x="500" y="290" as="sourcePoint" />
            <mxPoint x="350" y="240" as="targetPoint" />
          </mxGeometry>
        </mxCell>
        <mxCell id="NgoQIRQq6KJzNgYvoR6J-8" value="&lt;b&gt;Key&lt;/b&gt;" style="text;html=1;align=center;verticalAlign=middle;whiteSpace=wrap;rounded=0;" vertex="1" parent="1">
          <mxGeometry x="330" y="400" width="40" height="30" as="geometry" />
        </mxCell>
        <mxCell id="NgoQIRQq6KJzNgYvoR6J-9" value="&lt;b&gt;Value&lt;/b&gt;" style="text;html=1;align=center;verticalAlign=middle;whiteSpace=wrap;rounded=0;" vertex="1" parent="1">
          <mxGeometry x="420" y="400" width="40" height="30" as="geometry" />
        </mxCell>
        <mxCell id="NgoQIRQq6KJzNgYvoR6J-10" value="Object C" style="text;html=1;align=center;verticalAlign=middle;whiteSpace=wrap;rounded=0;" vertex="1" parent="1">
          <mxGeometry x="330" y="430" width="60" height="30" as="geometry" />
        </mxCell>
        <mxCell id="NgoQIRQq6KJzNgYvoR6J-11" value="{Wire A, Wire B}" style="text;html=1;align=center;verticalAlign=middle;whiteSpace=wrap;rounded=0;" vertex="1" parent="1">
          <mxGeometry x="420" y="430" width="100" height="30" as="geometry" />
        </mxCell>
        <mxCell id="NgoQIRQq6KJzNgYvoR6J-12" value="" style="endArrow=none;dashed=1;html=1;dashPattern=1 3;strokeWidth=2;rounded=0;" edge="1" parent="1">
          <mxGeometry width="50" height="50" relative="1" as="geometry">
            <mxPoint x="210" y="360" as="sourcePoint" />
            <mxPoint x="620" y="360" as="targetPoint" />
          </mxGeometry>
        </mxCell>
        <mxCell id="NgoQIRQq6KJzNgYvoR6J-13" value="&lt;b&gt;tamara::RTLILWireConnections&lt;/b&gt;" style="text;html=1;align=center;verticalAlign=middle;whiteSpace=wrap;rounded=0;" vertex="1" parent="1">
          <mxGeometry x="300" y="370" width="200" height="30" as="geometry" />
        </mxCell>
      </root>
    </mxGraphModel>
  </diagram>
</mxfile>
